DataRate=2000.000000
DataType=double
version=3
OpenSimVersion=4.3-2021-08-27-4bc7ad9
endheader
time	f1_1	f1_2	f1_3	p1_1	p1_2	p1_3	m1_1	m1_2	m1_3	f2_1	f2_2	f2_3	p2_1	p2_2	p2_3	m2_1	m2_2	m2_3	f3_1	f3_2	f3_3	p3_1	p3_2	p3_3	m3_1	m3_2	m3_3	f4_1	f4_2	f4_3	p4_1	p4_2	p4_3	m4_1	m4_2	m4_3
1.7325	-0	0	0	-300	2252	0	0	0	0	3.113861083984375	-38.58496856689453	416.399169921875	-300	1351	0	-106714.84375	39982.203125	1240.740112304688	-4.786562196466643	38.00006845532354	350.8265075683594	-300	450.0000000000007	0	98537.74886727059	25913.83047909678	2408.541748046875	-0	0	0	305	450.0000000000007	0	0	0	0
1.733	-0	0	0	-300	2252	0	0	0	0	3.428202867507935	-38.38982772827148	416.0628967285156	-300	1351	0	-106674.453125	40042.53125	1214.5322265625	-4.625741246099815	38.2432935600095	351.2820739746094	-300	450.0000000000007	0	98521.87386969008	25858.47891590287	2353.4462890625	-0	0	0	305	450.0000000000007	0	0	0	0
1.7335	-0	0	0	-300	2252	0	0	0	0	3.313636302947998	-38.01197814941406	416.7014770507812	-300	1351	0	-106453.4453125	40258.96484375	1196.687622070312	-4.768619768107218	38.00531747954533	351.3677673339844	-300	450.0000000000007	0	98531.70199283832	25900.84219758247	2359.525634765625	-0	0	0	305	450.0000000000007	0	0	0	0
1.734	-0	0	0	-300	2252	0	0	0	0	3.28789758682251	-38.27077484130859	417.3076171875	-300	1351	0	-106455.7890625	39957.46484375	1185.366333007812	-4.524251689421303	37.95129374755122	351.7880859375	-300	450.0000000000007	0	98512.83479892915	26047.46719675776	2379.927734375	-0	0	0	305	450.0000000000007	0	0	0	0
1.7345	-0	0	0	-300	2252	0	0	0	0	3.271274328231812	-38.4619255065918	416.7523193359375	-300	1351	0	-106672.359375	39837.9375	1180.973999023438	-4.643719916045693	38.28293970790526	352.0658874511719	-300	450.0000000000007	0	98511.14730435089	25923.432040434	2392.212646484375	-0	0	0	305	450.0000000000007	0	0	0	0
1.735	-0	0	0	-300	2252	0	0	0	0	3.156157493591309	-38.372802734375	416.5843200683594	-300	1351	0	-106737.796875	40153.37109375	1226.999389648438	-4.790384055583714	38.21269205134789	352.1730041503906	-300	450.0000000000007	0	98705.37387464543	25745.11368954891	2353.535888671875	-0	0	0	305	450.0000000000007	0	0	0	0
1.7355	-0	0	0	-300	2252	0	0	0	0	3.177824974060059	-38.53805923461914	415.8951721191406	-300	1351	0	-106618.9765625	40152.65625	1199.052001953125	-4.750575781081888	38.18555048204304	351.4390258789062	-300	450.0000000000007	0	98753.26449200654	25919.87150414227	2426.13525390625	-0	0	0	305	450.0000000000007	0	0	0	0
1.736	-0	0	0	-300	2252	0	0	0	0	3.071229457855225	-38.47499847412109	416.683349609375	-300	1351	0	-106409.9375	40130.26953125	1126.69091796875	-4.741474393163483	38.25235727565376	351.7164916992188	-300	450.0000000000007	0	98684.37385581787	26175.83829800597	2448.58544921875	-0	0	0	305	450.0000000000007	0	0	0	0
1.7365	-0	0	0	-300	2252	0	0	0	0	3.253998756408691	-38.40210342407227	416.4856262207031	-300	1351	0	-106399.0078125	40032.875	1150.315673828125	-4.750590563428814	38.19458749986466	351.8241271972656	-300	450.0000000000007	0	98799.70197965627	26202.41252179712	2375.94775390625	-0	0	0	305	450.0000000000007	0	0	0	0
1.737	-0	0	0	-300	2252	0	0	0	0	3.173549890518188	-38.68259429931641	415.9765319824219	-300	1351	0	-106582.2109375	40060.203125	1143.338745117188	-4.741459614278366	38.32251718776379	350.933349609375	-300	450.0000000000007	0	98833.3347930474	26182.02580451726	2326.901123046875	-0	0	0	305	450.0000000000007	0	0	0	0
1.7375	-0	0	0	-300	2252	0	0	0	0	3.11798357963562	-38.72497177124023	416.4512023925781	-300	1351	0	-106594.765625	40099.73828125	1106.863159179688	-4.750597724105035	38.38032510972763	351.1745910644531	-300	450.0000000000007	0	98720.66292425382	26040.03947146721	2313.6181640625	-0	0	0	305	450.0000000000007	0	0	0	0
1.738	-0	0	0	-300	2252	0	0	0	0	3.169164419174194	-38.68697738647461	415.6754150390625	-300	1351	0	-106550.3359375	40091.58984375	1182.1669921875	-4.622097740697623	38.41083887877227	352.1014404296875	-300	450.0000000000007	0	98640.98323900078	25988.6351711093	2270.5654296875	-0	0	0	305	450.0000000000007	0	0	0	0
1.7385	-0	0	0	-300	2252	0	0	0	0	3.207181215286255	-38.55109786987305	416.2138671875	-300	1351	0	-106517.1015625	40094.71875	1239.326416015625	-4.603812472181514	38.5478628053528	352.2940063476562	-300	450.0000000000007	0	98651.09261238277	26025.6507965512	2304.37939453125	-0	0	0	305	450.0000000000007	0	0	0	0
1.739	-0	0	0	-300	2252	0	0	0	0	3.300788879394531	-38.50433349609375	416.5670166015625	-300	1351	0	-106472.4296875	39943.2578125	1146.434936523438	-4.622126839345096	38.6757772332632	352.137451171875	-300	450.0000000000007	0	98869.70979781912	26072.86174360726	2359.634521484375	-0	0	0	305	450.0000000000007	0	0	0	0
1.7395	-0	0	0	-300	2252	0	0	0	0	3.555141925811768	-38.50433349609375	415.5775451660156	-300	1351	0	-106574.9921875	40088.2578125	1076.433715820312	-4.484485876695921	38.45649318166248	351.788330078125	-300	450.0000000000007	0	98893.74885871938	26109.45940090804	2340.050048828125	-0	0	0	305	450.0000000000007	0	0	0	0
1.74	-0	0	0	-300	2252	0	0	0	0	3.581742763519287	-38.41963958740234	415.790283203125	-300	1351	0	-106349.1640625	40336.59765625	1196.372436523438	-4.475299598723674	38.22498683440778	352.0651550292969	-300	450.0000000000007	0	98969.90511155054	26044.68987298694	2396.23583984375	-0	0	0	305	450.0000000000007	0	0	0	0
1.7405	-0	0	0	-300	2252	0	0	0	0	3.427921533584595	-38.49542999267578	416.2843017578125	-300	1351	0	-106134.6328125	40286.34375	1213.078125	-4.603754772753527	38.49909190081431	352.0173034667969	-300	450.0000000000007	0	99005.58480101841	25999.67034329654	2432.2119140625	-0	0	0	305	450.0000000000007	0	0	0	0
1.741	-0	0	0	-300	2252	0	0	0	0	3.56842041015625	-38.72492980957031	415.3219299316406	-300	1351	0	-106314.703125	40164.125	1211.464477539062	-4.622185006557283	38.51744059385636	351.2465209960938	-300	450.0000000000007	0	98926.31136285454	26014.85783983139	2415.85791015625	-0	0	0	305	450.0000000000007	0	0	0	0
1.7415	-0	0	0	-300	2252	0	0	0	0	3.695509433746338	-38.39080047607422	415.6928100585938	-300	1351	0	-106337.40625	40147.51953125	1241.007690429688	-4.44477773931511	38.45949916484349	352.34130859375	-300	450.0000000000007	0	98930.76448294564	26127.16057440104	2362.56640625	-0	0	0	305	450.0000000000007	0	0	0	0
1.742	-0	0	0	-300	2252	0	0	0	0	3.454850435256958	-38.1811408996582	415.3574523925781	-300	1351	0	-106286.25	40058.9765625	1242.589233398438	-4.386559735668978	38.4291456212457	353.0651245117188	-300	450.0000000000007	0	98952.28792830097	25947.45159096686	2283.726806640625	-0	0	0	305	450.0000000000007	0	0	0	0
1.7425	-0	0	0	-300	2252	0	0	0	0	3.117854118347168	-38.28827285766602	415.3217468261719	-300	1351	0	-106327.9375	39974.0859375	1213.177490234375	-4.514985806387314	38.33161143594452	352.1376647949219	-300	450.0000000000007	0	99048.68636988055	25854.12151705557	2267.414306640625	-0	0	0	305	450.0000000000007	0	0	0	0
1.743	-0	0	0	-300	2252	0	0	0	0	3.126896142959595	-38.40163040161133	415.5251770019531	-300	1351	0	-106270.6171875	40041.203125	1211.605834960938	-4.612962497871236	38.48977640968917	352.2574462890625	-300	450.0000000000007	0	99093.98323621998	26052.25237841056	2280.8046875	-0	0	0	305	450.0000000000007	0	0	0	0
1.7435	-0	0	0	-300	2252	0	0	0	0	3.075491189956665	-38.68259429931641	415.00439453125	-300	1351	0	-106152.078125	40094.51171875	1254.479614257812	-4.573254370616225	38.72443369902253	352.6431274414062	-300	450.0000000000007	0	99048.13167268218	26075.99456390633	2297.219482421875	-0	0	0	305	450.0000000000007	0	0	0	0
1.744	-0	0	0	-300	2252	0	0	0	0	3.080041408538818	-38.38657760620117	414.9683837890625	-300	1351	0	-106063.875	40273.8671875	1229.956787109375	-4.563952228283386	38.65464381295453	352.7994079589844	-300	450.0000000000007	0	99148.71760197391	26263.77777142808	2270.64453125	-0	0	0	305	450.0000000000007	0	0	0	0
1.7445	-0	0	0	-300	2252	0	0	0	0	3.160115242004395	-38.27008819580078	414.8370056152344	-300	1351	0	-106089.0078125	40275.30859375	1168.600952148438	-4.374801886752659	38.46873836467958	352.6798400878906	-300	450.0000000000007	0	99179.95197696537	26263.97308529338	2277.504638671875	-0	0	0	305	450.0000000000007	0	0	0	0
1.745	-0	0	0	-300	2252	0	0	0	0	3.343100786209106	-38.25069046020508	414.7826232910156	-300	1351	0	-106123.2890625	40035.23828125	1127.055908203125	-4.199756404717335	38.65700894117872	352.2940063476562	-300	450.0000000000007	0	99089.35824176937	25925.2973000834	2286.7890625	-0	0	0	305	450.0000000000007	0	0	0	0
1.7455	-0	0	0	-300	2252	0	0	0	0	3.263066530227661	-38.26546478271484	415.5071105957031	-300	1351	0	-106124.3515625	40077.015625	1150.25	-4.465884942013931	38.59426860361813	352.4501953125	-300	450.0000000000007	0	99202.38949561126	25837.40472689915	2251.052734375	-0	0	0	305	450.0000000000007	0	0	0	0
1.746	-0	0	0	-300	2252	0	0	0	0	3.333920955657959	-38.46664810180664	415.5252990722656	-300	1351	0	-106232.078125	40264.5859375	1213.099853515625	-4.533591994941651	38.39203623981872	352.7993469238281	-300	450.0000000000007	0	99184.50667244603	26081.39691361747	2267.44287109375	-0	0	0	305	450.0000000000007	0	0	0	0
1.7465	-0	0	0	-300	2252	0	0	0	0	3.356903791427612	-38.28380966186523	415.339599609375	-300	1351	0	-106423.609375	40034.0078125	1197.881103515625	-4.554574756959731	38.84291438221209	352.6799926757812	-300	450.0000000000007	0	99275.3738543386	26209.6801207144	2267.572509765625	-0	0	0	305	450.0000000000007	0	0	0	0
1.747	-0	0	0	-300	2252	0	0	0	0	3.291552066802979	-38.49049377441406	415.339599609375	-300	1351	0	-106478.1171875	40131.22265625	1183.832641601562	-4.66200283247256	38.88019922859047	352.1378479003906	-300	450.0000000000007	0	99343.05354405165	26159.05121742277	2280.923583984375	-0	0	0	305	450.0000000000007	0	0	0	0
1.7475	-0	0	0	-300	2252	0	0	0	0	3.394632339477539	-38.51822280883789	415.339599609375	-300	1351	0	-106249.0078125	40211.51171875	1210.043212890625	-4.612962508126431	38.72438792091964	352.5692749023438	-300	450.0000000000007	0	99371.25666468931	26258.85004678057	2323.774169921875	-0	0	0	305	450.0000000000007	0	0	0	0
1.748	-0	0	0	-300	2252	0	0	0	0	3.300788879394531	-38.32143402099609	414.5026550292969	-300	1351	0	-106219.734375	39942.09765625	1117.728759765625	-4.454337857761622	38.69425944884944	353.3414306640625	-300	450.0000000000007	0	99252.09260512386	26191.71527594674	2356.45556640625	-0	0	0	305	450.0000000000007	0	0	0	0
1.7485	-0	0	0	-300	2252	0	0	0	0	3.512159824371338	-38.28849792480469	414.9126281738281	-300	1351	0	-106203.546875	39954.20703125	1047.12451171875	-4.496012947732695	38.67552928345354	354.2777404785156	-300	450.0000000000007	0	99164.70979393947	26161.61761587712	2329.9638671875	-0	0	0	305	450.0000000000007	0	0	0	0
1.749	-0	0	0	-300	2252	0	0	0	0	3.662307739257812	-38.0633544921875	415.8971557617188	-300	1351	0	-105945.796875	39950.77734375	1125.800659179688	-4.631817601720476	38.69428995866968	355.4363403320312	-300	450.0000000000007	0	99239.59260385153	26220.82269727535	2283.998046875	-0	0	0	305	450.0000000000007	0	0	0	0
1.7495	-0	0	0	-300	2252	0	0	0	0	3.357122421264648	-38.1384391784668	415.339599609375	-300	1351	0	-106010.3984375	39962.921875	1179.534301757812	-4.395906711862316	38.75442104197972	355.2803649902344	-300	450.0000000000007	0	99242.79572774313	26246.18011929036	2293.943603515625	-0	0	0	305	450.0000000000007	0	0	0	0
1.75	-0	0	0	-300	2252	0	0	0	0	3.418134212493896	-38.1572151184082	414.3359375	-300	1351	0	-106213.53125	40077.8828125	1214.93408203125	-4.346830154623188	38.75259761883195	354.6192932128906	-300	450.0000000000007	0	99212.73322812543	26237.43402422629	2339.98095703125	-0	0	0	305	450.0000000000007	0	0	0	0
1.7505	-0	0	0	-300	2252	0	0	0	0	3.620106220245361	-38.13837814331055	413.7222595214844	-300	1351	0	-106095.21875	40017.0234375	1141.130493164062	-4.426069989218504	38.50825481141319	354.3516235351562	-300	450.0000000000007	0	99221.48322425246	26326.03754023376	2303.393798828125	-0	0	0	305	450.0000000000007	0	0	0	0
1.751	-0	0	0	-300	2252	0	0	0	0	3.563685417175293	-38.15727233886719	414.6145324707031	-300	1351	0	-105911.90625	39895.640625	1207.225219726562	-4.445026175329694	38.54769496561389	354.1144104003906	-300	450.0000000000007	0	99237.60040661883	26443.48090031327	2237.755859375	-0	0	0	305	450.0000000000007	0	0	0	0
